<?xml version="1.0" standalone="no"?>
<!DOCTYPE svg PUBLIC "-//W3C//DTD SVG 20010904//EN"
 "http://www.w3.org/TR/2001/REC-SVG-20010904/DTD/svg10.dtd">
<svg version="1.0" xmlns="http://www.w3.org/2000/svg"
 width="700.000000pt" height="700.000000pt" viewBox="0 0 700.000000 700.000000"
 preserveAspectRatio="xMidYMid meet">
<metadata>
Created by potrace 1.11, written by Peter Selinger 2001-2013
</metadata>
<g transform="translate(0.000000,700.000000) scale(0.100000,-0.100000)"
fill="#000000" stroke="none">
<path d="M5257 4814 c-48 -7 -120 -23 -160 -34 -104 -31 -278 -118 -379 -190
-211 -150 -396 -404 -481 -658 l-25 -73 -4 123 c-4 108 -9 135 -40 226 -84
244 -246 427 -470 531 -149 70 -161 71 -853 71 l-615 0 -1 -417 -1 -418 -18
95 c-56 302 -233 539 -495 665 -153 74 -163 75 -840 75 l-595 0 0 -620 0 -620
-140 0 -140 0 0 -105 0 -105 140 0 140 0 0 -580 0 -580 255 0 255 0 0 435 0
435 324 0 c179 0 359 5 402 11 158 22 335 112 449 228 l49 51 108 0 108 0 0
-580 0 -580 250 0 250 0 0 435 0 435 254 0 253 0 264 -435 264 -435 284 0
c225 0 282 3 278 13 -2 7 -133 225 -291 484 -157 259 -286 476 -286 482 0 6 6
11 13 11 20 0 158 94 196 134 l35 36 91 0 91 0 11 -77 c28 -187 124 -419 244
-586 116 -163 296 -313 481 -402 186 -89 355 -121 588 -112 252 10 426 68 648
214 280 185 499 534 554 883 l12 80 143 0 143 0 0 105 0 105 -139 0 -140 0 -6
48 c-25 190 -61 312 -135 469 -189 398 -552 674 -965 733 -95 13 -252 11 -358
-6z m369 -459 c190 -48 380 -208 477 -400 36 -74 84 -230 94 -312 l9 -73 -758
0 -758 0 0 44 c0 69 46 233 93 331 113 234 313 387 552 424 75 12 215 5 291
-14z m-4156 -13 c151 -60 232 -202 232 -407 -1 -122 -26 -212 -79 -282 -68
-89 -31 -82 -455 -83 l-378 0 0 401 0 401 313 -4 c293 -3 315 -5 367 -26z
m1997 -6 c79 -36 154 -114 195 -202 25 -55 32 -82 36 -159 7 -148 -30 -265
-114 -355 l-47 -50 -403 0 -404 0 0 393 c0 217 3 397 7 401 4 4 156 6 338 4
l330 -3 62 -29z m-1237 -601 l0 -165 -45 0 -44 0 18 43 c23 53 48 154 57 230
3 31 8 57 10 57 2 0 4 -74 4 -165z m1940 -130 c0 -24 -5 -35 -15 -35 -18 0
-18 -1 -4 39 14 40 19 39 19 -4z m2024 -272 c-3 -16 -15 -62 -26 -103 -81
-312 -309 -542 -584 -590 -107 -19 -270 -9 -369 23 -102 34 -214 107 -296 195
-117 125 -174 248 -225 480 l-4 22 755 0 755 0 -6 -27z"/>
</g>
</svg>
